# File created by Blade
# Date/Time:  Wed Sep 24 19:42:34 2014
# Frame Rate: 120.000 fps
#------------------------------------------------------
:FULLY-SPECIFIED
:DEGREES
2840
root -4.649291 33.055775 -3.686771 7.325626 -2.604040 -2.071339
Spine -12.878532 11.777107 -6.490496
Head 13.057299 -16.330450 17.244807
LeftShoulder -16.805084 23.686205 8.059028
LeftArm 23.195740 31.488054 -69.509789
LeftForeArm 3.790518 -0.000000 25.028609
LeftHand -25.691729 0.000000 -4.396680
LeftHandThumb1 -26.253704 0.000000 33.147579
RightShoulder 338.668338 7.876654 317.461248
RightArm 58.508487 37.172012 27.703447
RightForeArm -19.956326 -0.000000 90.192501
RightHand -7.881916 0.000000 44.495927
RightHandThumb1 -24.326973 -0.000000 -32.862282
LeftUpLeg -1.470358 7.515149 5.406395
LeftLeg -1.504633 -0.000000 0.000000
LeftFoot -8.824652 6.526696 -19.550066
LeftToeBase 10.472818 -0.000000 -0.000000
RightUpLeg -5.076720 -5.187192 -0.145716
RightLeg 2.397488 -0.000000 -0.000000
RightFoot -5.843682 -2.920897 -16.217622
RightToeBase 0.331772 -0.000000 -0.000000
2841
root -4.647553 33.054174 -3.693819 7.344788 -2.617817 -2.076381
Spine -12.800869 11.796518 -6.426381
Head 13.348706 -16.147307 17.042947
LeftShoulder -16.809782 23.626002 8.108240
LeftArm 23.229621 31.593773 -69.503934
LeftForeArm 3.800692 -0.000000 25.014824
LeftHand -25.666110 0.000000 -4.443719
LeftHandThumb1 -26.253704 0.000000 33.147579
RightShoulder 338.667891 8.515543 317.059750
RightArm 58.976669 37.807529 29.728744
RightForeArm -19.425190 -0.000000 90.582873
RightHand -7.824044 -0.000000 44.011765
RightHandThumb1 -24.326973 -0.000000 -32.862282
LeftUpLeg -1.501019 7.503416 5.411502
LeftLeg -1.495860 -0.000000 0.000000
LeftFoot -8.844389 6.510061 -19.602311
LeftToeBase 10.494908 -0.000000 -0.000000
RightUpLeg -5.119958 -5.183147 -0.141451
RightLeg 2.420303 -0.000000 -0.000000
RightFoot -5.862802 -2.922959 -16.255476
RightToeBase 0.365957 -0.000000 -0.000000
2842
root -4.648054 33.055051 -3.702411 7.378500 -2.629560 -2.075854
Spine -12.743979 11.828658 -6.384129
Head 13.680538 -15.997736 16.873275
LeftShoulder -16.784557 23.540152 8.174841
LeftArm 23.225525 31.695893 -69.504868
LeftForeArm 3.838923 -0.000000 25.014681
LeftHand -25.637855 -0.000000 -4.475571
LeftHandThumb1 -26.253704 0.000000 33.147579
RightShoulder 338.654670 9.334377 316.523220
RightArm 59.375491 38.311901 31.925452
RightForeArm -19.212503 -0.000000 91.070005
RightHand -7.547320 -0.000000 43.435391
RightHandThumb1 -24.326973 -0.000000 -32.862282
LeftUpLeg -1.558888 7.479163 5.400819
LeftLeg -1.475645 -0.000000 0.000000
LeftFoot -8.857814 6.577935 -19.554662
LeftToeBase 10.509088 -0.000000 -0.000000
RightUpLeg -5.169572 -5.179907 -0.137717
RightLeg 2.415334 -0.000000 -0.000000
RightFoot -5.842277 -2.904059 -16.237562
RightToeBase 0.342775 -0.000000 -0.000000
2843
root -4.648150 33.055187 -3.710251 7.405548 -2.635425 -2.089844
Spine -12.666190 11.873352 -6.311312
Head 14.038769 -15.863443 16.564338
LeftShoulder -16.764500 23.465381 8.223490
LeftArm 23.243693 31.783240 -69.499262
LeftForeArm 3.907834 -0.000000 25.024658
LeftHand -25.619945 -0.000000 -4.487025
LeftHandThumb1 -26.253704 0.000000 33.147579
RightShoulder 338.593378 10.431370 315.776561
RightArm 59.582658 38.668048 34.162427
RightForeArm -18.811049 -0.000000 91.599539
RightHand -7.218849 -0.000000 42.794729
RightHandThumb1 -24.326973 -0.000000 -32.862282
LeftUpLeg -1.605524 7.483462 5.415836
LeftLeg -1.457202 -0.000000 0.000000
LeftFoot -8.864596 6.545849 -19.585466
LeftToeBase 10.528437 -0.000000 -0.000000
RightUpLeg -5.208494 -5.209741 -0.119194
RightLeg 2.407703 -0.000000 -0.000000
RightFoot -5.830487 -2.853064 -16.227063
RightToeBase 0.319928 -0.000000 -0.000000
2844
root -4.646292 33.055565 -3.718694 7.444149 -2.639744 -2.089516
Spine -12.596909 11.914251 -6.271724
Head 14.371966 -15.667724 16.455146
LeftShoulder -16.762047 23.452817 8.284194
LeftArm 23.339439 31.847872 -69.482223
LeftForeArm 3.961391 0.000000 25.028427
LeftHand -25.545001 -0.000000 -4.512400
LeftHandThumb1 -26.253704 0.000000 33.147579
RightShoulder 338.552736 11.427965 315.063173
RightArm 59.783076 39.240830 36.520120
RightForeArm -17.876076 -0.000000 92.261794
RightHand -7.119959 -0.000000 41.788753
RightHandThumb1 -24.326973 -0.000000 -32.862282
LeftUpLeg -1.667663 7.471682 5.408860
LeftLeg -1.437539 -0.000000 0.000000
LeftFoot -8.871810 6.544063 -19.635476
LeftToeBase 10.562745 -0.000000 -0.000000
RightUpLeg -5.272444 -5.228502 -0.117389
RightLeg 2.427062 -0.000000 -0.000000
RightFoot -5.835789 -2.816822 -16.224640
RightToeBase 0.299526 -0.000000 -0.000000
2845
root -4.643056 33.057853 -3.728347 7.499886 -2.638141 -2.054147
Spine -12.545492 11.966328 -6.275130
Head 14.740109 -15.539853 16.262009
LeftShoulder -16.757028 23.394800 8.332269
LeftArm 23.417527 31.952300 -69.419332
LeftForeArm 3.963594 -0.000000 25.048926
LeftHand -25.543350 -0.000000 -4.499208
LeftHandThumb1 -26.253704 0.000000 33.147579
RightShoulder 338.446125 12.346118 314.411587
RightArm 60.235877 39.914661 38.932470
RightForeArm -16.753375 -0.000000 92.869188
RightHand -7.129872 -0.000000 40.450757
RightHandThumb1 -24.326973 -0.000000 -32.862282
LeftUpLeg -1.730346 7.332392 5.361621
LeftLeg -1.465679 -0.000000 0.000000
LeftFoot -8.863074 6.706162 -19.636576
LeftToeBase 10.526738 -0.000000 -0.000000
RightUpLeg -5.349211 -5.253780 -0.148779
RightLeg 2.427726 -0.000000 -0.000000
RightFoot -5.823232 -2.797754 -16.250868
RightToeBase 0.306844 -0.000000 -0.000000
2846
root -4.641387 33.058314 -3.737758 7.559339 -2.631982 -2.044664
Spine -12.487952 12.020911 -6.242454
Head 15.127480 -15.394185 16.058201
LeftShoulder -16.748720 23.329555 8.383989
LeftArm 23.446367 31.995636 -69.414754
LeftForeArm 4.048182 -0.000000 25.098754
LeftHand -25.535945 0.000000 -4.513508
LeftHandThumb1 -26.253704 0.000000 33.147579
RightShoulder 338.266272 14.862288 312.494061
RightArm 58.451404 39.319468 40.802042
RightForeArm -15.050393 -0.000000 94.234749
RightHand -7.781121 -0.000000 39.071427
RightHandThumb1 -24.326973 -0.000000 -32.862282
LeftUpLeg -1.814689 7.318879 5.341514
LeftLeg -1.453207 -0.000000 0.000000
LeftFoot -8.844976 6.724672 -19.605339
LeftToeBase 10.483294 -0.000000 -0.000000
RightUpLeg -5.431538 -5.268757 -0.150402
RightLeg 2.441603 -0.000000 -0.000000
RightFoot -5.824917 -2.797909 -16.246726
RightToeBase 0.327640 -0.000000 -0.000000
2847
root -4.640694 33.059435 -3.746462 7.617284 -2.605728 -2.038933
Spine -12.417607 12.056807 -6.188616
Head 15.502072 -15.249468 15.840971
LeftShoulder -16.779100 23.345569 8.365501
LeftArm 23.581174 31.988681 -69.329126
LeftForeArm 4.118672 -0.000000 25.155634
LeftHand -25.528638 -0.000000 -4.565640
LeftHandThumb1 -26.253704 0.000000 33.147579
RightShoulder 338.031450 16.613684 311.140819
RightArm 57.749876 39.498272 42.830976
RightForeArm -14.204738 0.000000 95.272422
RightHand -7.775487 -0.000000 37.760236
RightHandThumb1 -24.326973 -0.000000 -32.862282
LeftUpLeg -1.903692 7.285865 5.330590
LeftLeg -1.433308 -0.000000 0.000000
LeftFoot -8.843271 6.724748 -19.631644
LeftToeBase 10.542869 -0.000000 -0.000000
RightUpLeg -5.504476 -5.311596 -0.145013
RightLeg 2.443995 -0.000000 -0.000000
RightFoot -5.811164 -2.788158 -16.269011
RightToeBase 0.348326 -0.000000 -0.000000
2848
root -4.641713 33.059500 -3.753646 7.683099 -2.585847 -2.044731
Spine -12.364759 12.111436 -6.132188
Head 15.855511 -15.153415 15.655878
LeftShoulder -16.764128 23.270548 8.396869
LeftArm 23.549287 31.963076 -69.348294
LeftForeArm 4.155736 0.000000 25.247162
LeftHand -25.520454 0.000000 -4.546893
LeftHandThumb1 -26.253704 0.000000 33.147579
RightShoulder 337.640046 19.352315 308.943576
RightArm 55.679141 38.960143 44.506968
RightForeArm -13.760789 -0.000000 96.644480
RightHand -7.657740 -0.000000 36.310647
RightHandThumb1 -24.326973 -0.000000 -32.862282
LeftUpLeg -2.012445 7.386306 5.323150
LeftLeg -1.382551 -0.000000 0.000000
LeftFoot -8.827482 6.639455 -19.562626
LeftToeBase 10.514247 -0.000000 -0.000000
RightUpLeg -5.577263 -5.361695 -0.121323
RightLeg 2.433611 -0.000000 -0.000000
RightFoot -5.809645 -2.777420 -16.287613
RightToeBase 0.366189 -0.000000 -0.000000
2849
root -4.641083 33.058727 -3.762790 7.771852 -2.562873 -2.046623
Spine -12.322878 12.154499 -6.114335
Head 16.168435 -15.173983 15.499270
LeftShoulder -16.810613 23.312449 8.420545
LeftArm 23.676741 31.907620 -69.327544
LeftForeArm 4.214401 -0.000000 25.316051
LeftHand -25.501441 -0.000000 -4.429240
LeftHandThumb1 -26.253704 0.000000 33.147579
RightShoulder 335.850121 28.378382 301.480942
RightArm 44.836369 33.660959 43.820324
RightForeArm -13.364521 -0.000000 99.662550
RightHand -7.747363 -0.000000 34.918277
RightHandThumb1 -24.326973 -0.000000 -32.862282
LeftUpLeg -2.132848 7.396358 5.314983
LeftLeg -1.361438 -0.000000 0.000000
LeftFoot -8.830452 6.604737 -19.574739
LeftToeBase 10.527798 -0.000000 -0.000000
RightUpLeg -5.677201 -5.372353 -0.108415
RightLeg 2.426942 -0.000000 -0.000000
RightFoot -5.801357 -2.771943 -16.276941
RightToeBase 0.343316 -0.000000 -0.000000
2850
root -4.642472 33.063132 -3.769298 7.819728 -2.518265 -1.999498
Spine -12.238309 12.186326 -5.995384
Head 16.653963 -14.988485 14.906577
LeftShoulder -16.748078 23.288736 8.223209
LeftArm 23.667050 31.800409 -69.122103
LeftForeArm 4.062241 -0.000000 25.501099
LeftHand -25.622023 -0.000000 -4.458486
LeftHandThumb1 -26.253704 0.000000 33.147579
RightShoulder 315.825192 57.893665 262.477567
RightArm 4.425656 11.341938 40.982869
RightForeArm -13.532956 0.000000 106.949609
RightHand -6.796592 -0.000000 33.791668
RightHandThumb1 -24.326973 -0.000000 -32.862282
LeftUpLeg -2.199593 7.384400 5.268616
LeftLeg -1.375368 -0.000000 0.000000
LeftFoot -8.746254 6.576874 -19.612433
LeftToeBase 10.582718 -0.000000 -0.000000
RightUpLeg -5.728954 -5.453326 -0.136537
RightLeg 2.412876 -0.000000 -0.000000
RightFoot -5.787122 -2.746992 -16.301279
RightToeBase 0.396929 -0.000000 -0.000000
2851
root -4.642711 33.066314 -3.775702 7.872359 -2.469497 -1.985331
Spine -12.153271 12.229004 -5.937669
Head 17.033210 -15.025666 14.560488
LeftShoulder -16.731886 23.298253 8.143142
LeftArm 23.731010 31.668322 -69.037414
LeftForeArm 4.103263 -0.000000 25.615735
LeftHand -25.651513 -0.000000 -4.413960
LeftHandThumb1 -26.253704 0.000000 33.147579
RightShoulder 312.753263 59.297626 258.183425
RightArm 1.871309 12.683256 40.912864
RightForeArm -12.093866 -0.000000 108.270981
RightHand -6.636115 -0.000000 32.491094
RightHandThumb1 -24.326973 -0.000000 -32.862282
LeftUpLeg -2.268078 7.346236 5.254609
LeftLeg -1.390652 -0.000000 0.000000
LeftFoot -8.687868 6.569732 -19.628303
LeftToeBase 10.587971 -0.000000 -0.000000
RightUpLeg -5.781430 -5.511124 -0.135473
RightLeg 2.393755 -0.000000 -0.000000
RightFoot -5.758692 -2.736115 -16.302888
RightToeBase 0.408495 -0.000000 -0.000000
